HIERARCHY
ROOT hip
{
  OFFSET 0 0 0
  CHANNELS 6 Xposition Yposition Zposition Zrotation Yrotation Xrotation
  JOINT abdomen
  {
    OFFSET 0 20.6881 -0.73152
    CHANNELS 3 Zrotation Xrotation Yrotation
    JOINT chest
    {
      OFFSET 0 11.7043 -0.48768
      CHANNELS 3 Zrotation Xrotation Yrotation
      JOINT neck
      {
        OFFSET 0 22.1894 -2.19456
        CHANNELS 3 Zrotation Xrotation Yrotation
        JOINT head
        {
          OFFSET -0.24384 7.07133 1.2192
          CHANNELS 3 Zrotation Xrotation Yrotation
          JOINT leftEye
          {
            OFFSET 4.14528 8.04674 8.04672
            CHANNELS 3 Zrotation Xrotation Yrotation
            End Site
            {
              OFFSET 1 0 0
            }
          }
          JOINT rightEye
          {
            OFFSET -3.6576 8.04674 8.04672
            CHANNELS 3 Zrotation Xrotation Yrotation
            End Site
            {
              OFFSET 1 0 0
            }
          }
        }
      }
      JOINT rCollar
      {
        OFFSET -2.68224 19.2634 -4.8768
        CHANNELS 3 Zrotation Xrotation Yrotation
        JOINT rShldr
        {
          OFFSET -8.77824 -1.95073 1.46304
          CHANNELS 3 Zrotation Xrotation Yrotation
          JOINT rForeArm
          {
            OFFSET -28.1742 -1.7115 0.48768
            CHANNELS 3 Zrotation Xrotation Yrotation
            JOINT rHand
            {
              OFFSET -22.5879 0.773209 7.07136
              CHANNELS 3 Zrotation Xrotation Yrotation
              JOINT rThumb1
              {
                OFFSET -1.2192 -0.487915 3.41376
                CHANNELS 3 Zrotation Xrotation Yrotation
                JOINT rThumb2
                {
                  OFFSET -3.37035 -0.52449 3.41376
                  CHANNELS 3 Zrotation Xrotation Yrotation
                  End Site
                  {
                    OFFSET -1.78271 -1.18214 1.43049
                  }
                }
              }
              JOINT rIndex1
              {
                OFFSET -7.75947 0.938293 5.60832
                CHANNELS 3 Zrotation Xrotation Yrotation
                JOINT rIndex2
                {
                  OFFSET -2.54057 -0.884171 1.56538
                  CHANNELS 3 Zrotation Xrotation Yrotation
                  End Site
                  {
                    OFFSET -1.62519 -0.234802 1.16502
                  }
                }
              }
              JOINT rMid1
              {
                OFFSET -8.24714 1.18213 3.41376
                CHANNELS 3 Zrotation Xrotation Yrotation
                JOINT rMid2
                {
                  OFFSET -3.10165 -0.590103 1.0647
                  CHANNELS 3 Zrotation Xrotation Yrotation
                  End Site
                  {
                    OFFSET -2.48547 -0.328903 0.83742
                  }
                }
              }
              JOINT rRing1
              {
                OFFSET -8.82822 0.546677 1.51678
                CHANNELS 3 Zrotation Xrotation Yrotation
                JOINT rRing2
                {
                  OFFSET -2.60934 -0.819778 -0.0198488
                  CHANNELS 3 Zrotation Xrotation Yrotation
                  End Site
                  {
                    OFFSET -2.33842 -0.294052 0.168128
                  }
                }
              }
              JOINT rPinky1
              {
                OFFSET -8.27202 -0.0477905 -0.4584
                CHANNELS 3 Zrotation Xrotation Yrotation
                JOINT rPinky2
                {
                  OFFSET -1.82734 -0.647385 -0.700984
                  CHANNELS 3 Zrotation Xrotation Yrotation
                  End Site
                  {
                    OFFSET -1.69225 -0.51767 -0.607171
                  }
                }
              }
            }
          }
        }
      }
      JOINT lCollar
      {
        OFFSET 2.68224 19.2634 -4.8768
        CHANNELS 3 Zrotation Xrotation Yrotation
        JOINT lShldr
        {
          OFFSET 8.77824 -1.95073 1.46304
          CHANNELS 3 Zrotation Xrotation Yrotation
          JOINT lForeArm
          {
            OFFSET 28.1742 -1.7115 0.48768
            CHANNELS 3 Zrotation Xrotation Yrotation
            JOINT lHand
            {
              OFFSET 22.5879 0.773209 7.07136
              CHANNELS 3 Zrotation Xrotation Yrotation
              JOINT lThumb1
              {
                OFFSET 1.2192 -0.487915 3.41376
                CHANNELS 3 Zrotation Xrotation Yrotation
                JOINT lThumb2
                {
                  OFFSET 3.37035 -0.52449 3.41376
                  CHANNELS 3 Zrotation Xrotation Yrotation
                  End Site
                  {
                    OFFSET 1.78271 -1.18214 1.43049
                  }
                }
              }
              JOINT lIndex1
              {
                OFFSET 7.75947 0.938293 5.60832
                CHANNELS 3 Zrotation Xrotation Yrotation
                JOINT lIndex2
                {
                  OFFSET 2.54057 -0.884171 1.56538
                  CHANNELS 3 Zrotation Xrotation Yrotation
                  End Site
                  {
                    OFFSET 1.62519 -0.234802 1.16502
                  }
                }
              }
              JOINT lMid1
              {
                OFFSET 8.24714 1.18213 3.41376
                CHANNELS 3 Zrotation Xrotation Yrotation
                JOINT lMid2
                {
                  OFFSET 3.10165 -0.590103 1.0647
                  CHANNELS 3 Zrotation Xrotation Yrotation
                  End Site
                  {
                    OFFSET 2.48547 -0.328903 0.83742
                  }
                }
              }
              JOINT lRing1
              {
                OFFSET 8.82822 0.546677 1.51678
                CHANNELS 3 Zrotation Xrotation Yrotation
                JOINT lRing2
                {
                  OFFSET 2.60934 -0.819778 -0.0198488
                  CHANNELS 3 Zrotation Xrotation Yrotation
                  End Site
                  {
                    OFFSET 2.33842 -0.294052 0.168128
                  }
                }
              }
              JOINT lPinky1
              {
                OFFSET 8.27202 -0.0477905 -0.4584
                CHANNELS 3 Zrotation Xrotation Yrotation
                JOINT lPinky2
                {
                  OFFSET 1.82734 -0.647385 -0.700984
                  CHANNELS 3 Zrotation Xrotation Yrotation
                  End Site
                  {
                    OFFSET 1.69225 -0.51767 -0.607171
                  }
                }
              }
            }
          }
        }
      }
    }
  }
  JOINT rButtock
  {
    OFFSET -8.77824 4.35084 1.2192
    CHANNELS 3 Zrotation Xrotation Yrotation
    JOINT rThigh
    {
      OFFSET 0 -1.70687 -2.19456
      CHANNELS 3 Zrotation Xrotation Yrotation
      JOINT rShin
      {
        OFFSET 0 -36.8199 0.73152
        CHANNELS 3 Zrotation Xrotation Yrotation
        JOINT rFoot
        {
          OFFSET 0.73152 -45.1104 -5.12064
          CHANNELS 3 Zrotation Xrotation Yrotation
          End Site
          {
            OFFSET -1.1221 -3.69964 12.103
          }
        }
      }
    }
  }
  JOINT lButtock
  {
    OFFSET 8.77824 4.35084 1.2192
    CHANNELS 3 Zrotation Xrotation Yrotation
    JOINT lThigh
    {
      OFFSET 0 -1.70687 -2.19456
      CHANNELS 3 Zrotation Xrotation Yrotation
      JOINT lShin
      {
        OFFSET 0 -36.8199 0.73152
        CHANNELS 3 Zrotation Xrotation Yrotation
        JOINT lFoot
        {
          OFFSET -0.73152 -45.1104 -5.12064
          CHANNELS 3 Zrotation Xrotation Yrotation
          End Site
          {
            OFFSET 1.1221 -3.69964 12.103
          }
        }
      }
    }
  }
}
MOTION
Frames:	4
Frame Time:	0.03333
-4.053502121443712 45.80149321548881 12.575482965050444 -0.39150190353393555 3.759371757507324 5.9083099365234375 -4.300992012023926 1.036629319190979 12.284502029418945 0.6198117733001709 -6.145637512207031 3.3064606189727783 -8.151638984680176 13.187918663024902 -8.589826583862305 8.57171630859375 -15.458601951599121 -15.275121688842773 0.08473595976829529 -0.5512162446975708 0.24869395792484283 0.1262020468711853 0.3433813452720642 0.18605978786945343 -0.24755853414535522 -0.33587613701820374 0.06644529104232788 -46.87771987915039 55.54586410522461 120.43413543701172 -28.103275299072266 -32.044010162353516 70.72946166992188 -0.2955457270145416 2.6688005924224854 0.4081806242465973 -0.08113491535186768 0.2857130765914917 -0.1446671485900879 -0.13726964592933655 -0.7151559591293335 -0.4010452628135681 -0.4269333481788635 0.07740964740514755 0.6531314253807068 7.5431904792785645 6.001937389373779 0.4355977475643158 0.26446256041526794 -0.15999235212802887 -0.450106680393219 2.5657801628112793 1.1887731552124023 0.5572370886802673 0.031132157891988754 -0.11150123924016953 0.04608544334769249 10.603095054626465 0.5180156826972961 0.05213835462927818 0.42202669382095337 0.12624479830265045 -0.27409204840660095 2.5253219604492188 -0.7593437433242798 -0.34011057019233704 -0.10149992257356644 -0.10472618788480759 0.2142028510570526 -110.74446105957031 59.61394119262695 52.724735260009766 27.297338485717773 -40.37774658203125 -84.94039154052734 0.3074242174625397 -7.5876030921936035 0.9060739278793335 -0.013233592733740807 -0.3007602095603943 -0.16150052845478058 -0.028032509610056877 -0.3735934793949127 0.21306906640529633 0.12818528711795807 -0.06892918050289154 -0.02654438652098179 -8.377396583557129 5.405584812164307 -0.360243022441864 0.0036030125338584185 0.5075659155845642 -0.20086432993412018 -2.660601854324341 0.7082002758979797 -0.1500217318534851 0.13632740080356598 -0.06596224009990692 -0.14983373880386353 -10.627227783203125 0.6150312423706055 -0.240929514169693 -0.00473132124170661 -0.18977724015712738 -0.4761609435081482 -2.320742607116699 -0.22090467810630798 0.18198254704475403 -0.004015577025711536 -0.09702713042497635 0.38098159432411194 9.759038925170898 -30.053544998168945 7.313199043273926 -0.00879247672855854 46.101993560791016 0.7338614463806152 -2.9796957969665527 -19.893571853637695 -5.53680419921875 0.29303818941116333 0.27026867866516113 0.3471163511276245 -10.577590942382812 -28.528841018676758 -8.367659568786621 -0.031880225986242294 47.55043411254883 -0.8332651257514954 6.332355499267578 -19.598628997802734 15.630724906921387
-4.193677240006238 45.774951100374146 12.600317879718155 -0.3260056972503662 3.4503657817840576 5.886519432067871 -4.395299434661865 1.0055665969848633 12.275456428527832 0.648190975189209 -6.127239227294922 3.3084819316864014 -8.165756225585938 13.166330337524414 -8.566275596618652 8.545770645141602 -15.40295124053955 -15.22341537475586 0.07392708957195282 -0.5532763600349426 0.257327675819397 0.11773037910461426 0.3488450050354004 0.18409615755081177 -0.2485535591840744 -0.3407815098762512 0.0713270753622055 -46.986244201660156 55.51363754272461 120.59296417236328 -28.113811492919922 -31.97027015686035 70.61712646484375 -0.28086647391319275 2.7136898040771484 0.4089725613594055 -0.06687349826097488 0.27950385212898254 -0.14697501063346863 -0.1374214142560959 -0.7208771705627441 -0.40204647183418274 -0.4211130142211914 0.06673695892095566 0.6626349687576294 7.549623012542725 5.9947686195373535 0.42708393931388855 0.266107976436615 -0.1567920595407486 -0.4435538947582245 2.569279432296753 1.192669153213501 0.5544747710227966 0.019185077399015427 -0.10223144292831421 0.041734401136636734 10.617029190063477 0.5177153944969177 0.051512740552425385 0.41369113326072693 0.1244007870554924 -0.25898733735084534 2.5372750759124756 -0.7733564376831055 -0.3333814740180969 -0.11644382029771805 -0.09767742455005646 0.22647365927696228 -110.80257415771484 59.62052536010742 52.82484436035156 27.287490844726562 -40.41405487060547 -85.02140045166016 0.3050122857093811 -7.62907600402832 0.917905867099762 -0.016528744250535965 -0.29659274220466614 -0.18534332513809204 -0.0322759784758091 -0.366787314414978 0.20949608087539673 0.12258003652095795 -0.06617355346679688 -0.01898273639380932 -8.363008499145508 5.412924766540527 -0.35306981205940247 0.008552972227334976 0.5031219720840454 -0.19695547223091125 -2.676266670227051 0.7108404040336609 -0.15381699800491333 0.1378071904182434 -0.06578517705202103 -0.16566111147403717 -10.630370140075684 0.6256295442581177 -0.22696776688098907 -0.01064395159482956 -0.2003147304058075 -0.46597784757614136 -2.310703754425049 -0.22398291528224945 0.17525862157344818 0.0002068104804493487 -0.09637117385864258 0.394992470741272 9.676036834716797 -30.14518165588379 7.279492378234863 -0.0032203614246100187 46.25927734375 0.7119380831718445 -2.91019606590271 -19.851428985595703 -5.35585355758667 0.2963961362838745 0.24686256051063538 0.34963956475257874 -10.667970657348633 -28.369102478027344 -8.345436096191406 -0.02072620391845703 47.47309112548828 -0.8455765843391418 6.359553337097168 -19.669517517089844 15.652873039245605
-4.342457970036156 45.756017815994866 12.632197067297675 -0.41254642605781555 3.2928104400634766 5.85571813583374 -4.329336166381836 0.9984822273254395 12.278127670288086 0.6527446508407593 -6.111166000366211 3.3074183464050293 -8.169734001159668 13.172712326049805 -8.55227279663086 8.554718017578125 -15.339756965637207 -15.228271484375 0.07031172513961792 -0.5639791488647461 0.2546873390674591 0.09692611545324326 0.36096060276031494 0.1873915046453476 -0.24697405099868774 -0.33670899271965027 0.0743798092007637 -47.103450775146484 55.61327362060547 120.74809265136719 -28.100698471069336 -31.966318130493164 70.6144027709961 -0.27804818749427795 2.4873297214508057 0.3740454316139221 -0.049908626824617386 0.27774715423583984 -0.14563527703285217 -0.13527384400367737 -0.7330482602119446 -0.41044121980667114 -0.41303545236587524 0.06618387252092361 0.6645258665084839 7.557958126068115 5.985090255737305 0.42118826508522034 0.2563306391239166 -0.14961804449558258 -0.44824934005737305 2.5811800956726074 1.1981580257415771 0.5516967177391052 0.014096172526478767 -0.09945669770240784 0.03284997493028641 10.63521671295166 0.5221043229103088 0.060527898371219635 0.4012007415294647 0.1296953558921814 -0.25966525077819824 2.548755168914795 -0.7791410684585571 -0.3421957790851593 -0.12074556946754456 -0.10582227259874344 0.2352437824010849 -110.71282196044922 59.64980697631836 52.748695373535156 27.291135787963867 -40.40537643432617 -84.9266357421875 0.3121755123138428 -7.442485332489014 0.883921205997467 -0.02942117117345333 -0.29842931032180786 -0.20071102678775787 -0.04137939214706421 -0.3680489659309387 0.2060927003622055 0.12701672315597534 -0.07568274438381195 -0.014147249981760979 -8.35527515411377 5.4056315422058105 -0.35007429122924805 0.013593985699117184 0.4951273798942566 -0.20010143518447876 -2.679166793823242 0.7224939465522766 -0.16062723100185394 0.1277637630701065 -0.065284363925457 -0.16539478302001953 -10.622598648071289 0.6239001154899597 -0.22164350748062134 -0.019015079364180565 -0.2007017433643341 -0.46082815527915955 -2.298729181289673 -0.2296450138092041 0.1659878045320511 0.014199798926711082 -0.10127914696931839 0.3883705139160156 9.690425872802734 -29.949247360229492 7.298340797424316 0.0021144261118024588 46.23565673828125 0.7181165218353271 -2.9196388721466064 -19.92937660217285 -5.383055210113525 0.2949339747428894 0.24144068360328674 0.3396754562854767 -10.555013656616211 -28.50873565673828 -8.2282133102417 0.001766825676895678 47.58701705932617 -0.845952570438385 6.310781955718994 -19.676124572753906 15.47982406616211
-4.489191350862363 45.746844871939544 12.666427547498973 -0.5179316401481628 3.3571536540985107 5.817869663238525 -4.235530376434326 1.0046930313110352 12.265925407409668 0.6623033881187439 -6.10012149810791 3.30332612991333 -8.181245803833008 13.21570110321045 -8.615493774414062 8.600239753723145 -15.289104461669922 -15.36426067352295 0.07422574609518051 -0.5656026005744934 0.23994983732700348 0.08423963934183121 0.3668678104877472 0.19941894710063934 -0.23941253125667572 -0.32599762082099915 0.08231111615896225 -47.080055236816406 55.63198471069336 120.71041870117188 -28.075782775878906 -31.984458923339844 70.63056182861328 -0.28269368410110474 2.211681842803955 0.33854684233665466 -0.032832711935043335 0.2755342125892639 -0.1397484987974167 -0.13011403381824493 -0.7435904741287231 -0.41041019558906555 -0.408043771982193 0.061938147991895676 0.6642650961875916 7.567807197570801 5.975432872772217 0.4127049744129181 0.24385769665241241 -0.14641520380973816 -0.4545210599899292 2.5990543365478516 1.1969103813171387 0.5513107776641846 0.021625855937600136 -0.09649050980806351 0.030309196561574936 10.648436546325684 0.5239335298538208 0.06866544485092163 0.3948628902435303 0.12839043140411377 -0.2702676057815552 2.548722505569458 -0.7832369208335876 -0.34935981035232544 -0.11320605874061584 -0.11633192002773285 0.24269072711467743 -110.7555923461914 59.68720245361328 52.761192321777344 27.30109405517578 -40.37778091430664 -84.83978271484375 0.32467663288116455 -7.309903621673584 0.8689817190170288 -0.04659988731145859 -0.3059018850326538 -0.21161219477653503 -0.04834908992052078 -0.37112027406692505 0.2056722342967987 0.14665040373802185 -0.07959598302841187 -0.016794798895716667 -8.356717109680176 5.400805950164795 -0.3570651113986969 0.01238940842449665 0.48896324634552 -0.202389657497406 -2.6717641353607178 0.7323105931282043 -0.16731923818588257 0.11096805334091187 -0.06086774170398712 -0.153580904006958 -10.611372947692871 0.6133575439453125 -0.22697803378105164 -0.026334745809435844 -0.19708950817584991 -0.4649731516838074 -2.290083646774292 -0.23459622263908386 0.1511349380016327 0.023798074573278427 -0.10405706614255905 0.36927467584609985 9.70422649383545 -29.720600128173828 7.305525302886963 -0.00319806020706892 46.1589469909668 0.7402331233024597 -2.930722951889038 -20.01374626159668 -5.456910610198975 0.2939302623271942 0.23962585628032684 0.3348129391670227 -10.435954093933105 -28.751338958740234 -8.1293306350708 0.024236250668764114 47.7824821472168 -0.8453859686851501 6.274489402770996 -19.703977584838867 15.308234214782715
